<svg xmlns="http://www.w3.org/2000/svg" xmlns:xlink="http://www.w3.org/1999/xlink" viewBox="0 0 67.73 67.73"><defs><linearGradient id="c" x1="42.83" x2="24.15" y1="238.67" y2="290.67" xlink:href="#a" gradientUnits="userSpaceOnUse" gradientTransform="translate(144.326 251.99) scale(1.149)"/><linearGradient id="a"><stop offset="0" stop-color="#b2ff59"/><stop offset="1" stop-color="#fff" stop-opacity="0"/></linearGradient><clipPath id="d"><circle cx="161.44" cy="551.15" r="37.91" fill="#7ecb20" stroke-width="3" stroke-dashoffset="2.27" transform="rotate(-15 394.26 374.4) scale(.89323)" clip-path="url(#b)" stroke-linecap="round"/></clipPath><clipPath id="b"><path fill="none" stroke="#000" stroke-width=".26" d="M127.37 534.12s5.8-10.6 14.95-12.12h38.33c4.64 0 10.32 4.14 12.88 8.5l9.53 5.17 2.62 58.12-85.14-.1-2-58.25z"/></clipPath></defs><g transform="translate(-81.794 -123.9)"><circle cx="161.44" cy="551.15" r="37.91" fill="#7ecb20" clip-path="url(#b)" transform="translate(-28.542 -338.452) scale(.89323)"/><circle cx="183.24" cy="553" r="33.87" fill="url(#c)" transform="rotate(15 1665.387 96.776)" clip-path="url(#d)"/><circle cx="97.94" cy="155.28" r="6.95" fill="#6b9b37"/><circle cx="115.44" cy="155.28" r="6.95" fill="#6b9b37"/><circle cx="133.13" cy="155.28" r="6.95" fill="#6b9b37"/><circle cx="124.27" cy="170.99" r="6.95" fill="#6b9b37"/><circle cx="97.94" cy="153.33" r="6.95" fill="#fff"/><circle cx="106.45" cy="170.99" r="6.95" fill="#6b9b37"/><circle cx="115.44" cy="153.33" r="6.95" fill="#fff"/><circle cx="106.66" cy="142.69" r="4.46" fill="#6b9b37"/><circle cx="133.13" cy="153.33" r="6.95" fill="#fff"/><circle cx="124.01" cy="142.69" r="4.46" fill="#6b9b37"/><circle cx="124.27" cy="169.04" r="6.95" fill="#fff"/><circle cx="106.45" cy="169.04" r="6.95" fill="#fff"/><circle cx="106.66" cy="140.74" r="4.46" fill="#fff"/><circle cx="124.01" cy="140.74" r="4.46" fill="#fff"/></g></svg>
